<svg viewBox="0 0 960 560" xmlns="http://www.w3.org/2000/svg" font-family="Inter, Roboto, sans-serif">
  <defs>
    <marker id="arr" viewBox="0 0 10 10" refX="9" refY="5" markerWidth="6" markerHeight="6" orient="auto">
      <path d="M 0 0 L 10 5 L 0 10 z" fill="#68A063"/>
    </marker>
    <marker id="arr-gray" viewBox="0 0 10 10" refX="9" refY="5" markerWidth="5" markerHeight="5" orient="auto">
      <path d="M 0 0 L 10 5 L 0 10 z" fill="#555"/>
    </marker>
  </defs>

  <!-- Background -->
  <rect width="960" height="560" fill="#1a1a1a"/>

  <!-- Title -->
  <text x="480" y="30" fill="#e0e0e0" font-size="17" font-weight="700" text-anchor="middle">Arquitectura Completa — Express REST API</text>
  <text x="480" y="50" fill="#666" font-size="11" text-anchor="middle">Semana 16 · Proyecto Final Integrador · Todos los conceptos en contexto</text>

  <!-- ── Left: request path label ─────────────────────── -->
  <text x="16" y="285" fill="#555" font-size="11" transform="rotate(-90,16,285)">HTTP Request →</text>
  <line x1="26" y1="72" x2="26" y2="430" stroke="#2d2d2d" stroke-width="1" stroke-dasharray="4,3"/>

  <!-- ── LAYER BOXES (centered x=290..670, 380px wide) ── -->

  <!-- CLIENT -->
  <rect x="290" y="62" width="380" height="38" rx="6" fill="#252525" stroke="#68A063" stroke-width="2"/>
  <text x="480" y="86" fill="#68A063" font-size="13" font-weight="700" text-anchor="middle">Cliente — Browser / Mobile / Postman</text>
  <text x="276" y="85" fill="#555" font-size="10" text-anchor="end">——</text>

  <line x1="480" y1="100" x2="480" y2="112" stroke="#68A063" stroke-width="1.5" marker-end="url(#arr)"/>

  <!-- SECURITY -->
  <rect x="290" y="112" width="380" height="38" rx="6" fill="#1d281d" stroke="#68A063" stroke-width="1.5"/>
  <text x="480" y="136" fill="#d0e8d0" font-size="13" text-anchor="middle">Seguridad — Helmet · CORS · Rate Limit</text>
  <text x="276" y="136" fill="#555" font-size="10" text-anchor="end">Sem. 08</text>

  <line x1="480" y1="150" x2="480" y2="162" stroke="#68A063" stroke-width="1.5" marker-end="url(#arr)"/>

  <!-- ROUTER -->
  <rect x="290" y="162" width="380" height="38" rx="6" fill="#1d281d" stroke="#68A063" stroke-width="1.5"/>
  <text x="480" y="186" fill="#d0e8d0" font-size="13" text-anchor="middle">Router — Express Routes</text>
  <text x="276" y="186" fill="#555" font-size="10" text-anchor="end">Sem. 02–03</text>

  <line x1="480" y1="200" x2="480" y2="212" stroke="#68A063" stroke-width="1.5" marker-end="url(#arr)"/>

  <!-- MIDDLEWARE -->
  <rect x="290" y="212" width="380" height="38" rx="6" fill="#1d281d" stroke="#68A063" stroke-width="1.5"/>
  <text x="480" y="236" fill="#d0e8d0" font-size="13" text-anchor="middle">Middleware — authenticate · validate · error</text>
  <text x="276" y="236" fill="#555" font-size="10" text-anchor="end">Sem. 04–07</text>

  <line x1="480" y1="250" x2="480" y2="262" stroke="#68A063" stroke-width="1.5" marker-end="url(#arr)"/>

  <!-- CONTROLLER -->
  <rect x="290" y="262" width="380" height="38" rx="6" fill="#1d281d" stroke="#68A063" stroke-width="1.5"/>
  <text x="480" y="286" fill="#d0e8d0" font-size="13" text-anchor="middle">Controller — req / res handling</text>
  <text x="276" y="286" fill="#555" font-size="10" text-anchor="end">Sem. 03</text>

  <line x1="480" y1="300" x2="480" y2="312" stroke="#68A063" stroke-width="1.5" marker-end="url(#arr)"/>

  <!-- SERVICE -->
  <rect x="290" y="312" width="380" height="38" rx="6" fill="#1d281d" stroke="#68A063" stroke-width="1.5"/>
  <text x="480" y="336" fill="#d0e8d0" font-size="13" text-anchor="middle">Service — business logic</text>
  <text x="276" y="336" fill="#555" font-size="10" text-anchor="end">Sem. 03</text>

  <line x1="480" y1="350" x2="480" y2="362" stroke="#68A063" stroke-width="1.5" marker-end="url(#arr)"/>

  <!-- REPOSITORY -->
  <rect x="290" y="362" width="380" height="38" rx="6" fill="#1d281d" stroke="#68A063" stroke-width="1.5"/>
  <text x="480" y="386" fill="#d0e8d0" font-size="13" text-anchor="middle">Repository — data access (Prisma / Mongoose)</text>
  <text x="276" y="386" fill="#555" font-size="10" text-anchor="end">Sem. 05–06</text>

  <!-- Dashed lines to stores -->
  <line x1="380" y1="400" x2="310" y2="420" stroke="#444" stroke-width="1" stroke-dasharray="4,2" marker-end="url(#arr-gray)"/>
  <line x1="480" y1="400" x2="480" y2="420" stroke="#444" stroke-width="1" stroke-dasharray="4,2" marker-end="url(#arr-gray)"/>
  <line x1="580" y1="400" x2="650" y2="420" stroke="#444" stroke-width="1" stroke-dasharray="4,2" marker-end="url(#arr-gray)"/>

  <!-- DATA STORES ROW -->
  <rect x="200" y="420" width="180" height="46" rx="6" fill="#1a2520" stroke="#22c55e" stroke-width="1.5"/>
  <text x="290" y="440" fill="#22c55e" font-size="12" font-weight="600" text-anchor="middle">PostgreSQL / MongoDB</text>
  <text x="290" y="457" fill="#666" font-size="11" text-anchor="middle">Prisma · Mongoose · Sem. 05–06</text>

  <rect x="390" y="420" width="180" height="46" rx="6" fill="#251a1a" stroke="#ef4444" stroke-width="1.5"/>
  <text x="480" y="440" fill="#ef4444" font-size="12" font-weight="600" text-anchor="middle">Redis</text>
  <text x="480" y="457" fill="#666" font-size="11" text-anchor="middle">Cache · Sesiones · Sem. 12</text>

  <rect x="580" y="420" width="180" height="46" rx="6" fill="#1a1a25" stroke="#8b5cf6" stroke-width="1.5"/>
  <text x="670" y="440" fill="#8b5cf6" font-size="12" font-weight="600" text-anchor="middle">S3 / Cloudinary</text>
  <text x="670" y="457" fill="#666" font-size="11" text-anchor="middle">Files · Emails · Sem. 10</text>

  <!-- ── Right: Transversal concerns panel ── -->
  <rect x="694" y="62" width="246" height="258" rx="6" fill="#202020" stroke="#333" stroke-width="1"/>
  <text x="817" y="84" fill="#aaa" font-size="12" font-weight="600" text-anchor="middle">Concerns Transversales</text>
  <line x1="704" y1="90" x2="930" y2="90" stroke="#333" stroke-width="1"/>
  <text x="708" y="110" fill="#777" font-size="11">📝  Logging — Winston · Sem. 15</text>
  <text x="708" y="130" fill="#777" font-size="11">📊  Monitoring — Logtail · Sem. 15</text>
  <text x="708" y="150" fill="#777" font-size="11">🧪  Testing — Jest + Supertest · Sem. 09</text>
  <text x="708" y="170" fill="#777" font-size="11">📚  Docs — OpenAPI/Swagger · Sem. 13</text>
  <text x="708" y="190" fill="#777" font-size="11">🔌  WebSockets — Socket.io · Sem. 11</text>
  <text x="708" y="210" fill="#777" font-size="11">📧  Email — Nodemailer · Sem. 10</text>
  <text x="708" y="230" fill="#777" font-size="11">🐳  Docker — multi-stage · Sem. 14</text>
  <text x="708" y="250" fill="#777" font-size="11">🚀  CI/CD — GitHub Actions · Sem. 15</text>
  <text x="708" y="270" fill="#777" font-size="11">🔐  Zod — validación · Sem. 04</text>
  <text x="708" y="290" fill="#777" font-size="11">🗂️  RBAC — autorización · Sem. 08</text>
  <text x="708" y="310" fill="#777" font-size="11">🔑  JWT — autenticación · Sem. 07</text>

  <!-- ── Response path (left dashed arc) ── -->
  <path d="M 285 400 Q 200 260 285 100" fill="none" stroke="#333" stroke-width="1.5" stroke-dasharray="5,3" marker-end="url(#arr-gray)"/>
  <text x="190" y="256" fill="#444" font-size="10" text-anchor="middle" transform="rotate(-90,190,256)">← HTTP Response</text>

  <!-- Footer -->
  <text x="480" y="535" fill="#333" font-size="10" text-anchor="middle">bootcamp/week-16-proyecto_final · Express 5 + TypeScript 5 + Prisma + JWT · Node.js 22</text>
</svg>
