<svg viewBox="0 0 960 520" xmlns="http://www.w3.org/2000/svg" font-family="Inter, Roboto, sans-serif">
  <rect width="960" height="520" fill="#1a1a1a"/>

  <!-- Title -->
  <text x="480" y="32" fill="#e0e0e0" font-size="17" font-weight="700" text-anchor="middle">Checklist de Entrega — Proyecto Final</text>
  <text x="480" y="52" fill="#666" font-size="11" text-anchor="middle">Semana 16 · Verifica cada punto antes de presentar</text>

  <!-- Two columns: left (code/repo) and right (deploy/docs) -->

  <!-- LEFT COLUMN header -->
  <rect x="40" y="68" width="420" height="30" rx="4" fill="#1d281d" stroke="#68A063" stroke-width="1.5"/>
  <text x="250" y="88" fill="#68A063" font-size="13" font-weight="600" text-anchor="middle">Repositorio y Código</text>

  <!-- LEFT items -->
  <!-- Item 1 -->
  <rect x="40" y="104" width="22" height="22" rx="4" fill="#252525" stroke="#68A063" stroke-width="1.5"/>
  <text x="41" y="120" fill="#68A063" font-size="14">✓</text>
  <text x="74" y="120" fill="#ccc" font-size="12">pnpm build  sin errores TypeScript</text>

  <!-- Item 2 -->
  <rect x="40" y="134" width="22" height="22" rx="4" fill="#252525" stroke="#68A063" stroke-width="1.5"/>
  <text x="41" y="150" fill="#68A063" font-size="14">✓</text>
  <text x="74" y="150" fill="#ccc" font-size="12">pnpm test  — todos los tests en verde</text>

  <!-- Item 3 -->
  <rect x="40" y="164" width="22" height="22" rx="4" fill="#252525" stroke="#68A063" stroke-width="1.5"/>
  <text x="41" y="180" fill="#68A063" font-size="14">✓</text>
  <text x="74" y="180" fill="#ccc" font-size="12">Arquitectura en capas (routes / ctrl / svc / repo)</text>

  <!-- Item 4 -->
  <rect x="40" y="194" width="22" height="22" rx="4" fill="#252525" stroke="#68A063" stroke-width="1.5"/>
  <text x="41" y="210" fill="#68A063" font-size="14">✓</text>
  <text x="74" y="210" fill="#ccc" font-size="12">Auth: register, login, refresh token</text>

  <!-- Item 5 -->
  <rect x="40" y="224" width="22" height="22" rx="4" fill="#252525" stroke="#68A063" stroke-width="1.5"/>
  <text x="41" y="240" fill="#68A063" font-size="14">✓</text>
  <text x="74" y="240" fill="#ccc" font-size="12">RBAC: rutas protegidas por rol (401 / 403)</text>

  <!-- Item 6 -->
  <rect x="40" y="254" width="22" height="22" rx="4" fill="#252525" stroke="#68A063" stroke-width="1.5"/>
  <text x="41" y="270" fill="#68A063" font-size="14">✓</text>
  <text x="74" y="270" fill="#ccc" font-size="12">Validación Zod + error handler global</text>

  <!-- Item 7 -->
  <rect x="40" y="284" width="22" height="22" rx="4" fill="#252525" stroke="#68A063" stroke-width="1.5"/>
  <text x="41" y="300" fill="#68A063" font-size="14">✓</text>
  <text x="74" y="300" fill="#ccc" font-size="12">Sin secretos en código (.env solo en .gitignore)</text>

  <!-- Item 8 -->
  <rect x="40" y="314" width="22" height="22" rx="4" fill="#252525" stroke="#68A063" stroke-width="1.5"/>
  <text x="41" y="330" fill="#68A063" font-size="14">✓</text>
  <text x="74" y="330" fill="#ccc" font-size="12">TypeScript strict — sin "any" explícito</text>

  <!-- Item 9 -->
  <rect x="40" y="344" width="22" height="22" rx="4" fill="#252525" stroke="#68A063" stroke-width="1.5"/>
  <text x="41" y="360" fill="#68A063" font-size="14">✓</text>
  <text x="74" y="360" fill="#ccc" font-size="12">docker build  compila sin errores</text>

  <!-- Item 10 -->
  <rect x="40" y="374" width="22" height="22" rx="4" fill="#252525" stroke="#68A063" stroke-width="1.5"/>
  <text x="41" y="390" fill="#68A063" font-size="14">✓</text>
  <text x="74" y="390" fill="#ccc" font-size="12">docker-compose up  levanta app + db correctamente</text>

  <!-- RIGHT COLUMN header -->
  <rect x="500" y="68" width="420" height="30" rx="4" fill="#1d281d" stroke="#68A063" stroke-width="1.5"/>
  <text x="710" y="88" fill="#68A063" font-size="13" font-weight="600" text-anchor="middle">Deploy y Documentación</text>

  <!-- RIGHT items -->
  <!-- Item 1 -->
  <rect x="500" y="104" width="22" height="22" rx="4" fill="#252525" stroke="#68A063" stroke-width="1.5"/>
  <text x="501" y="120" fill="#68A063" font-size="14">✓</text>
  <text x="534" y="120" fill="#ccc" font-size="12">Badge CI verde en README del proyecto</text>

  <!-- Item 2 -->
  <rect x="500" y="134" width="22" height="22" rx="4" fill="#252525" stroke="#68A063" stroke-width="1.5"/>
  <text x="501" y="150" fill="#68A063" font-size="14">✓</text>
  <text x="534" y="150" fill="#ccc" font-size="12">Pipeline CI corre en cada push a main</text>

  <!-- Item 3 -->
  <rect x="500" y="164" width="22" height="22" rx="4" fill="#252525" stroke="#68A063" stroke-width="1.5"/>
  <text x="501" y="180" fill="#68A063" font-size="14">✓</text>
  <text x="534" y="180" fill="#ccc" font-size="12">URL pública: /health → 200 OK (DB connected)</text>

  <!-- Item 4 -->
  <rect x="500" y="194" width="22" height="22" rx="4" fill="#252525" stroke="#68A063" stroke-width="1.5"/>
  <text x="501" y="210" fill="#68A063" font-size="14">✓</text>
  <text x="534" y="210" fill="#ccc" font-size="12">Variables de entorno en panel de Railway/Render</text>

  <!-- Item 5 -->
  <rect x="500" y="224" width="22" height="22" rx="4" fill="#252525" stroke="#68A063" stroke-width="1.5"/>
  <text x="501" y="240" fill="#68A063" font-size="14">✓</text>
  <text x="534" y="240" fill="#ccc" font-size="12">README: stack, endpoints, cómo correr en local</text>

  <!-- Item 6 -->
  <rect x="500" y="254" width="22" height="22" rx="4" fill="#252525" stroke="#68A063" stroke-width="1.5"/>
  <text x="501" y="270" fill="#68A063" font-size="14">✓</text>
  <text x="534" y="270" fill="#ccc" font-size="12">Colección Postman exportada O Swagger en /api/docs</text>

  <!-- Item 7 -->
  <rect x="500" y="284" width="22" height="22" rx="4" fill="#252525" stroke="#68A063" stroke-width="1.5"/>
  <text x="501" y="300" fill="#68A063" font-size="14">✓</text>
  <text x="534" y="300" fill="#ccc" font-size="12">Push a main dispara redeploy automático</text>

  <!-- Item 8 -->
  <rect x="500" y="314" width="22" height="22" rx="4" fill="#252525" stroke="#68A063" stroke-width="1.5"/>
  <text x="501" y="330" fill="#68A063" font-size="14">✓</text>
  <text x="534" y="330" fill="#ccc" font-size="12">Mínimo 5 assertions de integración en CI</text>

  <!-- Item 9 -->
  <rect x="500" y="344" width="22" height="22" rx="4" fill="#252525" stroke="#68A063" stroke-width="1.5"/>
  <text x="501" y="360" fill="#68A063" font-size="14">✓</text>
  <text x="534" y="360" fill="#ccc" font-size="12">Dominio asignado implementado de forma original</text>

  <!-- Item 10 -->
  <rect x="500" y="374" width="22" height="22" rx="4" fill="#252525" stroke="#68A063" stroke-width="1.5"/>
  <text x="501" y="390" fill="#68A063" font-size="14">✓</text>
  <text x="534" y="390" fill="#ccc" font-size="12">Presentación 5 min lista (arc. + dec. + demo)</text>

  <!-- Summary bar -->
  <rect x="40" y="418" width="880" height="60" rx="6" fill="#1d281d" stroke="#68A063" stroke-width="1.5"/>
  <text x="480" y="443" fill="#68A063" font-size="14" font-weight="700" text-anchor="middle">Proyecto Final — 16 semanas · 128 horas · Backend Junior listo para trabajar</text>
  <text x="480" y="464" fill="#888" font-size="12" text-anchor="middle">Express 5 · TypeScript 5 · Prisma · PostgreSQL · JWT · bcrypt · Zod · Jest · Docker · CI/CD · Railway</text>

  <!-- Footer -->
  <text x="480" y="500" fill="#333" font-size="10" text-anchor="middle">bootcamp/week-16-proyecto_final · Ergrato Dev</text>
</svg>
